# xmcd
#
# Track frame offsets: 
#        150
#        15965
#        34055
#        50012
#        63000
#        82860
#        98295
#        116562
#        132877
#        151540
#        164620
#        177292
#        192395
#        210975
#
# Disc length: 2845 seconds
#
# Revision: 0
# Processed by: cddbd v1.5.2PL0 Copyright (c) Steve Scherf et al.
# Submitted via: ExactAudioCopy v0.95b4
#
DISCID=9e0b1b0e
DTITLE=Slim Chance And The Convicts - The Dark Side of The Moonpie
DYEAR=2005
DGENRE=Blues
TTITLE0=Flat On The Floor
TTITLE1=Don't Take Me For Granted
TTITLE2=Sometimes I Drink
TTITLE3=I Hate To See You Go
TTITLE4=Rose of West Virginia
TTITLE5=That Song
TTITLE6=Heaven Got A Brand New Honky Tonk Angel
TTITLE7=You Must Like Leaving
TTITLE8=Poverty Creek
TTITLE9=She Loves Country Music
TTITLE10=One More Time
TTITLE11=Unfinished Busines
TTITLE12=Don't Sell Daddy No More Whiskey
TTITLE13=Don't Sell Dadddy No More Whiskey (Reprise)
EXTD=
EXTT0=
EXTT1=
EXTT2=
EXTT3=
EXTT4=
EXTT5=
EXTT6=
EXTT7=
EXTT8=
EXTT9=
EXTT10=
EXTT11=
EXTT12=
EXTT13=
PLAYORDER=
